<?xml version="1.0" encoding="UTF-8" standalone="no"?>
<!-- Created with Inkscape (http://www.inkscape.org/) -->

<svg
   width="23.813095mm"
   height="10.78627mm"
   viewBox="0 0 23.813095 10.78627"
   version="1.1"
   id="svg882"
   xmlns:inkscape="http://www.inkscape.org/namespaces/inkscape"
   xmlns:sodipodi="http://sodipodi.sourceforge.net/DTD/sodipodi-0.dtd"
   xmlns="http://www.w3.org/2000/svg"
   xmlns:svg="http://www.w3.org/2000/svg">
  <sodipodi:namedview
     id="namedview884"
     pagecolor="#ffffff"
     bordercolor="#000000"
     borderopacity="0.25"
     inkscape:showpageshadow="2"
     inkscape:pageopacity="0.0"
     inkscape:pagecheckerboard="0"
     inkscape:deskcolor="#d1d1d1"
     inkscape:document-units="mm"
     showgrid="false" />
  <defs
     id="defs879" />
  <g
     inkscape:label="Слой 1"
     inkscape:groupmode="layer"
     id="layer1"
     transform="translate(-90.443957,-128.93814)">
    <g
       id="g2278"
       style="fill:#ffffff">
      <path
         d="m 94.917854,128.93818 q 0.64665,0 0.9399,0.35339 0.30077,0.34588 0.30077,1.15043 v 2.05273 q 0,0.17294 -0.12783,0.30077 -0.12782,0.12782 -0.30077,0.12782 h -0.53385 q -0.17294,0 -0.30077,-0.12782 -0.12031,-0.12783 -0.12031,-0.30077 V 130.442 q 0,-0.25565 -0.0752,-0.34587 -0.0752,-0.0902 -0.27069,-0.0902 -0.15038,0 -0.28573,0.0978 -0.12782,0.0978 -0.12782,0.18798 v 2.20311 q 0,0.17294 -0.12782,0.30077 -0.12784,0.12782 -0.30077,0.12782 h -0.53387 q -0.17293,0 -0.30075,-0.12782 -0.12032,-0.12783 -0.12032,-0.30077 v -2.05273 q 0,-0.25565 -0.0752,-0.34587 -0.0752,-0.0903 -0.27068,-0.0903 -0.15038,0 -0.28573,0.0978 -0.12783,0.0978 -0.12783,0.18798 v 2.20311 q 0,0.17294 -0.12782,0.30078 -0.12782,0.12782 -0.30077,0.12782 h -0.57145 q -0.17294,0 -0.30077,-0.12782 -0.12782,-0.12784 -0.12782,-0.30078 v -3.05278 q 0,-0.17294 0.12782,-0.30076 0.12783,-0.12782 0.30077,-0.12782 h 0.45867 q 0.18046,0 0.30828,0.12782 0.12783,0.12031 0.14287,0.30076 l 0.007,0.0902 q 0,0.007 0.007,0.007 0.0151,0 0.0151,-0.007 0.20301,-0.27821 0.48123,-0.43611 0.28571,-0.15789 0.55641,-0.15789 0.34588,0 0.5489,0.12029 0.21053,0.12031 0.39851,0.43611 0,0.007 0.007,0.007 0.0151,0 0.0226,-0.007 0.55641,-0.5564 1.09027,-0.5564 z"
         style="font-weight:bold;font-size:6.38967px;font-family:'Rounded Mplus 1c';-inkscape-font-specification:'Rounded Mplus 1c Bold';fill:#ffffff;stroke-width:1.02534;stroke-linecap:round;stroke-linejoin:round"
         id="path451" />
      <path
         d="m 102.95581,129.50211 q 0.46619,-0.56393 1.15043,-0.56393 0.68425,0 0.97749,0.39098 0.30077,0.391 0.30077,1.33841 v 1.82716 q 0,0.17294 -0.12782,0.30077 -0.12782,0.12782 -0.30078,0.12782 h -0.53385 q -0.17295,0 -0.30077,-0.12782 -0.12781,-0.12783 -0.12781,-0.30077 v -1.82716 q 0,-0.34587 -0.0978,-0.4737 -0.0978,-0.12782 -0.35339,-0.12782 -0.21055,0 -0.39101,0.16542 -0.17293,0.16541 -0.17293,0.36091 v 1.90235 q 0,0.17294 -0.12782,0.30077 -0.12784,0.12782 -0.30078,0.12782 h -0.57146 q -0.17293,0 -0.30075,-0.12782 -0.12783,-0.12783 -0.12783,-0.30077 v -3.05278 q 0,-0.17294 0.12783,-0.30076 0.12782,-0.12783 0.30075,-0.12783 h 0.51131 q 0.18046,0 0.30829,0.12783 0.12782,0.1203 0.13534,0.30076 v 0.0602 q 0,0.007 0.007,0.007 0.0151,0 0.0151,-0.007 z"
         style="font-weight:bold;font-size:6.38967px;font-family:'Rounded Mplus 1c';-inkscape-font-specification:'Rounded Mplus 1c Bold';fill:#ffffff;stroke-width:1.02534;stroke-linecap:round;stroke-linejoin:round"
         id="path455" />
      <path
         d="m 108.55758,130.59238 q 0.0676,0 0.0676,-0.0677 -0.007,-0.34589 -0.15038,-0.49627 -0.13533,-0.15038 -0.41355,-0.15038 -0.29325,0 -0.44362,0.15038 -0.14287,0.14286 -0.18046,0.50379 0,0.0602 0.0602,0.0602 z m -0.53387,-1.6542 q 1.90988,0 1.91739,2.01513 0,0.18046 -0.13535,0.30828 -0.13534,0.12031 -0.32331,0.12031 h -1.97004 q -0.0677,0 -0.0526,0.0677 0.0677,0.3158 0.29325,0.44363 0.23309,0.12782 0.72184,0.12782 0.30829,0 0.75192,-0.0902 0.1579,-0.0375 0.28572,0.0676 0.12783,0.0978 0.12783,0.26318 v 0.12031 q 0,0.18798 -0.12031,0.34588 -0.11273,0.15038 -0.29324,0.18045 -0.45867,0.0902 -0.97749,0.0902 -1.06772,0 -1.6467,-0.51882 -0.57145,-0.52634 -0.57145,-1.51135 0,-0.97749 0.51129,-1.50384 0.51131,-0.52633 1.48128,-0.52633 z"
         style="font-weight:bold;font-size:6.38967px;font-family:'Rounded Mplus 1c';-inkscape-font-specification:'Rounded Mplus 1c Bold';fill:#ffffff;stroke-width:1.02534;stroke-linecap:round;stroke-linejoin:round"
         id="path457" />
      <path
         d="m 113.95632,129.01336 q 0.15789,0 0.2406,0.12783 0.0902,0.1203 0.0451,0.2707 l -1.70684,4.76714 q -0.0677,0.18046 -0.22557,0.28572 -0.15791,0.11273 -0.34589,0.11273 h -0.64664 q -0.1579,0 -0.24814,-0.12783 -0.0827,-0.1203 -0.0226,-0.26317 l 0.49627,-1.20306 q 0.007,-0.0301 0.007,-0.0602 0,-0.0301 -0.007,-0.0602 l -1.29329,-3.45129 q -0.0602,-0.14287 0.0301,-0.27069 0.0903,-0.12783 0.24814,-0.12783 h 0.72183 q 0.18047,0 0.32333,0.12031 0.15038,0.1203 0.18797,0.30076 l 0.43611,2.20312 q 0,0.007 0.007,0.007 0.007,0 0.007,-0.007 l 0.56395,-2.21063 q 0.0451,-0.18047 0.19549,-0.29325 0.15038,-0.12031 0.33837,-0.12031 z"
         style="font-weight:bold;font-size:6.38967px;font-family:'Rounded Mplus 1c';-inkscape-font-specification:'Rounded Mplus 1c Bold';fill:#ffffff;stroke-width:1.02534;stroke-linecap:round;stroke-linejoin:round"
         id="path459" />
      <path
         d="m 98.394944,131.82911 q 0.14287,0.23309 0.45867,0.23309 0.31582,0 0.45867,-0.23309 0.14286,-0.24062 0.14286,-0.81959 0,-0.57898 -0.14286,-0.81207 -0.14285,-0.24062 -0.45867,-0.24062 -0.3158,0 -0.45867,0.24062 -0.14286,0.23309 -0.14286,0.81207 0,0.57897 0.14286,0.81959 z m -1.03763,-2.30839 q 0.53385,-0.54137 1.4963,-0.54137 0.96246,0 1.496306,0.54137 0.53386,0.53387 0.53386,1.4888 0,0.95493 -0.53386,1.4963 -0.533846,0.53387 -1.496306,0.53387 -0.96245,0 -1.4963,-0.53387 -0.53387,-0.54137 -0.53387,-1.4963 0,-0.95493 0.53387,-1.4888 z"
         style="font-weight:bold;font-size:6.38967px;font-family:'Rounded Mplus 1c';-inkscape-font-specification:'Rounded Mplus 1c Bold';fill:#ffffff;stroke-width:1.02534;stroke-linecap:round;stroke-linejoin:round"
         id="path453" />
      <path
         d="m 103.10247,137.441 v -0.0614 c 0,-0.0614 -0.0307,-0.0921 -0.0921,-0.0921 h -0.31704 c -0.6818,0 -1.0227,0.20453 -1.0227,0.61362 0,0.30681 0.17045,0.46022 0.51135,0.46022 0.2659,0 0.48407,-0.0818 0.65453,-0.24546 0.17727,-0.17044 0.2659,-0.39544 0.2659,-0.67498 z m -0.61363,-3.27262 c 0.89998,0 1.5511,0.16362 1.95336,0.49088 0.40226,0.32726 0.60339,0.84543 0.60339,1.55451 v 2.79196 c 0,0.15681 -0.058,0.29317 -0.17385,0.40908 -0.11591,0.1159 -0.25227,0.17385 -0.40909,0.17385 h -0.6443 c -0.16363,0 -0.3034,-0.0545 -0.41931,-0.16362 -0.1159,-0.11591 -0.17726,-0.25568 -0.18408,-0.41931 v -0.0818 c 0,-0.007 -0.004,-0.0102 -0.0102,-0.0102 -0.007,0 -0.0137,0.004 -0.0204,0.0102 -0.43635,0.51134 -0.97497,0.76703 -1.61586,0.76703 -0.47726,0 -0.86929,-0.15001 -1.1761,-0.44999 -0.30681,-0.30681 -0.460206,-0.70226 -0.460206,-1.18633 0,-1.22723 0.920416,-1.84085 2.761276,-1.84085 h 0.31704 c 0.0614,0 0.0921,-0.0307 0.0921,-0.0921 v -0.0102 c 0,-0.40908 -0.23864,-0.61362 -0.7159,-0.61362 -0.40907,0 -0.93747,0.0614 -1.58518,0.18408 -0.14317,0.0272 -0.27271,-0.004 -0.38862,-0.0921 -0.1159,-0.0955 -0.17386,-0.21818 -0.17386,-0.36817 v -0.16363 c 0,-0.17045 0.0512,-0.32386 0.15341,-0.46021 0.10909,-0.13637 0.24544,-0.21818 0.40907,-0.24545 0.67498,-0.12272 1.23747,-0.18408 1.68745,-0.18408 z"
         id="path511"
         style="font-weight:bold;font-size:10.7089px;font-family:'Rounded Mplus 1c';-inkscape-font-specification:'Rounded Mplus 1c Bold';fill:#ffffff;stroke-width:1.39459;stroke-linecap:round;stroke-linejoin:round"
         sodipodi:nodetypes="csssssccccssssssccsscscssssssccsscccc" />
      <path
         d="m 98.392454,138.22098 c 0.15,-0.0272 0.28295,0.004 0.39885,0.0921 0.11591,0.0886 0.17386,0.20795 0.17386,0.35795 v 0.2659 c 0,0.17045 -0.0545,0.32044 -0.16363,0.44998 -0.10227,0.12954 -0.23863,0.20794 -0.40908,0.23522 -0.47726,0.0682 -0.88292,0.10227 -1.21701,0.10227 -0.90679,0 -1.60222,-0.23182 -2.0863,-0.69543 -0.48408,-0.46363 -0.72611,-1.15224 -0.72611,-2.06585 0,-0.89316 0.2318,-1.57496 0.69543,-2.0454 0.47044,-0.47726 1.142,-0.71588 2.01471,-0.71588 0.33408,0 0.73975,0.0341 1.21701,0.10226 0.17046,0.0272 0.30681,0.10565 0.40908,0.23523 0.10909,0.12953 0.16363,0.27953 0.16363,0.44998 v 0.2659 c 0,0.14999 -0.058,0.26931 -0.17386,0.35794 -0.1159,0.0886 -0.24885,0.11932 -0.39885,0.0921 -0.27954,-0.0478 -0.56589,-0.0716 -0.85906,-0.0716 -0.34772,0 -0.60681,0.10568 -0.77725,0.31704 -0.16363,0.21135 -0.24545,0.54884 -0.24545,1.01247 0,0.47043 0.0886,0.81134 0.2659,1.0227 0.18409,0.20454 0.47044,0.30681 0.85906,0.30681 0.29318,0 0.57953,-0.0239 0.85907,-0.0716 z"
         id="path509"
         style="font-weight:bold;font-size:10.7089px;font-family:'Rounded Mplus 1c';-inkscape-font-specification:'Rounded Mplus 1c Bold';fill:#ffffff;stroke-width:1.39459;stroke-linecap:round;stroke-linejoin:round"
         sodipodi:nodetypes="csssccssscsccssscscscscc" />
      <path
         d="m 109.75459,134.50859 c 0.15682,0 0.29318,0.058 0.40908,0.17386 0.11591,0.11591 0.17386,0.25227 0.17386,0.40908 v 0.16363 c 0,0.15682 -0.058,0.29318 -0.17386,0.40909 -0.1159,0.1159 -0.25226,0.17385 -0.40908,0.17385 h -0.9102 c -0.0614,0 -0.0921,0.0307 -0.0921,0.0921 v 1.44201 c 0,0.40908 0.0341,0.66475 0.10227,0.76702 0.0682,0.10227 0.22159,0.15341 0.46021,0.15341 0.0954,0 0.21135,-0.0102 0.34772,-0.0307 0.14318,-0.0204 0.27272,0.0171 0.38863,0.1125 0.12272,0.0886 0.18408,0.20453 0.18408,0.34772 v 0.2659 c 0,0.17044 -0.0545,0.32385 -0.16363,0.46021 -0.10227,0.12955 -0.23522,0.20454 -0.39885,0.225 -0.23863,0.0341 -0.52839,0.0511 -0.8693,0.0511 -0.72952,0 -1.24428,-0.15681 -1.54427,-0.47044 -0.29999,-0.31363 -0.44998,-0.87271 -0.44998,-1.67723 v -1.64654 c 0,-0.0614 -0.0307,-0.0921 -0.0921,-0.0921 h -0.39885 c -0.15681,0 -0.29317,-0.058 -0.40907,-0.17385 -0.11591,-0.11591 -0.17387,-0.25227 -0.17387,-0.40909 v -0.16363 c 0,-0.15681 0.058,-0.29317 0.17387,-0.40908 0.1159,-0.11591 0.25226,-0.17386 0.40907,-0.17386 h 0.39885 c 0.0614,0 0.0921,-0.0307 0.0921,-0.0921 v -0.3279 c 0,-0.15682 0.058,-0.29317 0.17385,-0.40908 0.11591,-0.11591 0.25227,-0.17386 0.40909,-0.17386 h 0.77724 c 0.15682,0 0.29317,0.058 0.40908,0.17386 0.11591,0.11591 0.17386,0.25226 0.17386,0.40908 v 0.3279 c 0,0.0614 0.0307,0.0921 0.0921,0.0921 z"
         id="path513"
         style="font-weight:bold;font-size:10.7089px;font-family:'Rounded Mplus 1c';-inkscape-font-specification:'Rounded Mplus 1c Bold';fill:#ffffff;stroke-width:1.39459;stroke-linecap:round;stroke-linejoin:round"
         sodipodi:nodetypes="sssssssssssccssccssssssssssssssssssssss" />
    </g>
  </g>
</svg>
