<?xml version="1.0" encoding="UTF-8" standalone="no"?>
<svg
   id="body_1"
   width="120"
   height="28"
   version="1.1"
   sodipodi:docname="logo-new-r.svg"
   inkscape:version="1.2.2 (732a01da63, 2022-12-09, custom)"
   xmlns:inkscape="http://www.inkscape.org/namespaces/inkscape"
   xmlns:sodipodi="http://sodipodi.sourceforge.net/DTD/sodipodi-0.dtd"
   xmlns="http://www.w3.org/2000/svg"
   xmlns:svg="http://www.w3.org/2000/svg">
  <defs
     id="defs353" />
  <sodipodi:namedview
     id="namedview351"
     pagecolor="#ffffff"
     bordercolor="#000000"
     borderopacity="0.25"
     inkscape:showpageshadow="2"
     inkscape:pageopacity="0.0"
     inkscape:pagecheckerboard="0"
     inkscape:deskcolor="#d1d1d1"
     showgrid="false"
     inkscape:zoom="7.5778277"
     inkscape:cx="25.337077"
     inkscape:cy="11.546845"
     inkscape:window-width="1920"
     inkscape:window-height="1016"
     inkscape:window-x="0"
     inkscape:window-y="27"
     inkscape:window-maximized="1"
     inkscape:current-layer="body_1" />
  <g
     id="g874">
    <path
       d="m 44.126474,19.782383 c 0.854546,0 1.181819,-0.629358 1.181819,-1.294679 v 0 -9.7820171 c 0,-1.1688072 -0.454546,-2.1577966 -1.618183,-2.1577966 -0.909091,0 -1.490909,0.395595 -2.218182,2.1577966 v 0 l -3.127273,7.4983481 h -0.03636 L 35.235564,8.7416502 C 34.508291,6.9974328 33.944654,6.5478903 32.9992,6.5478903 c -1.163634,0 -1.654546,0.9889894 -1.654546,2.1577966 v 0 9.7820171 c 0,0.665321 0.327275,1.294679 1.181816,1.294679 0.836364,0 1.163639,-0.629358 1.163639,-1.294679 v 0 -7.534311 h 0.03637 l 2.909089,6.797063 c 0.563636,1.312661 0.981818,2.031927 1.690909,2.031927 0.690909,0 1.127273,-0.719266 1.672728,-2.031927 v 0 l 2.927273,-6.797063 h 0.03636 v 7.534311 c 0,0.665321 0.327272,1.294679 1.163636,1.294679 z m 8.285716,0.161835 c 3.090909,0 5.000001,-1.924037 5.000001,-4.819082 0,-2.948991 -1.945455,-4.801101 -5.000001,-4.801101 -3.072728,0 -5.018183,1.85211 -5.018183,4.801101 0,2.895045 1.927273,4.819082 5.018183,4.819082 z m 0,-2.301652 c -1.345455,0 -2.345455,-0.935045 -2.345455,-2.51743 0,-1.546422 0.927273,-2.49945 2.309091,-2.49945 1.436364,0 2.363637,0.953028 2.363637,2.49945 0,1.582385 -0.927273,2.51743 -2.327273,2.51743 z m 14.576625,2.139817 c 0.909091,0 1.29091,-0.665321 1.29091,-1.384587 v 0 -3.560367 c 0,-3.074862 -1.472728,-4.513394 -3.872728,-4.513394 -1.327273,0 -2.563637,0.701285 -3.072728,1.582385 v 0 h -0.03636 v -0.323669 c 0,-0.575413 -0.309091,-1.114862 -1.054545,-1.114862 -0.727273,0 -1.054546,0.539449 -1.054546,1.114862 v 0 6.815045 c 0,0.719266 0.4,1.384587 1.309091,1.384587 0.909091,0 1.29091,-0.665321 1.29091,-1.384587 v 0 l 0.01818,-3.344587 c 0,-1.492477 0.800001,-2.409541 2.09091,-2.409541 1.345455,0 1.781818,1.096881 1.781818,2.409541 v 0 3.344587 c 0,0.719266 0.4,1.384587 1.309091,1.384587 z m 8.267534,0.161835 c 0.981818,0 1.963637,-0.161835 2.600001,-0.575413 0.436363,-0.269725 0.709091,-0.665321 0.709091,-1.186789 0,-0.521468 -0.381819,-1.006972 -1.072728,-1.006972 -0.745455,0 -1.036364,0.431559 -2.254546,0.431559 -1.872727,0 -2.6,-0.917064 -2.6,-1.600367 v 0 h 4.854546 c 1.054546,0 1.436364,-0.503486 1.436364,-1.438532 0,-2.463485 -1.545455,-4.243669 -4.327273,-4.243669 -2.727274,0 -4.654547,1.906055 -4.654547,4.747156 0,2.895045 1.781819,4.873027 5.309092,4.873027 z m 1.018182,-5.682202 h -3.654546 c 0,-1.006972 0.854546,-1.780183 1.927273,-1.780183 1.272728,0 1.745455,0.755229 1.745455,1.510459 0,0.07193 0,0.197798 -0.01818,0.269724 z m 6.018183,9.512293 c 1.8,0 2.981818,-0.935046 4.254546,-4.153761 v 0 l 2.872728,-7.372476 c 0.381818,-0.988991 -0.09091,-1.780183 -1.109091,-1.780183 -0.872728,0 -1.181819,0.593394 -1.363637,1.150825 v 0 l -1.963637,6.077797 h -0.05454 l -1.981819,-6.095779 c -0.181818,-0.539449 -0.472727,-1.132843 -1.272727,-1.132843 -1.018182,0 -1.618182,0.971009 -1.290909,1.834128 v 0 l 3.145455,7.96587 c -0.272728,0.881101 -0.69091,1.186789 -1.527273,1.186789 v 0 h -0.236364 c -0.636364,0 -1.109091,0.395596 -1.109091,1.042936 0,0.539449 0.254545,0.917064 0.727273,1.132844 0.236363,0.107889 0.545454,0.143853 0.909091,0.143853 z m 15.745457,-3.830091 c 0.854545,0 1.836364,-0.143854 2.490909,-0.557432 0.45455,-0.269724 0.76364,-0.647339 0.76364,-1.186788 0,-0.557432 -0.36364,-1.060918 -1,-1.060918 -0.745458,0 -1.127276,0.377615 -2.309095,0.377615 -2.454545,0 -4.363637,-1.582385 -4.363637,-4.333577 0,-2.733211 1.781819,-4.3335779 4.363637,-4.3335779 0.963637,0 1.545455,0.359633 2.200005,0.359633 0.67272,0 1.12727,-0.4315596 1.12727,-1.1508255 0,-0.4675229 -0.29091,-0.8271585 -0.70909,-1.078899 -0.690912,-0.395595 -1.727275,-0.5574311 -2.563639,-0.5574311 -4.436364,0 -7.09091,2.7691739 -7.09091,6.7611005 0,3.902017 2.836364,6.7611 7.09091,6.7611 z m 12.727279,0 c 1.03636,0 1.45454,-0.593395 1.45454,-1.294679 0,-0.413578 -0.18182,-0.773211 -0.61818,-1.132844 -0.32727,-0.269725 -0.41818,-0.32367 -0.41818,-1.114862 v 0 -0.845138 c 0,-2.73321 -0.6,-5.23266 -4.47273,-5.23266 -0.8,0 -1.76364,0.10789 -2.49091,0.413578 -0.58182,0.233762 -1,0.683303 -1,1.240734 0,0.701284 0.38182,1.060917 1.01818,1.060917 0.2,0 0.47273,-0.07193 0.76364,-0.143853 0.4,-0.08991 0.85454,-0.197798 1.30909,-0.197798 1.30909,0 2.36364,0.341651 2.36364,1.942018 -0.78182,-0.431559 -1.69091,-0.611376 -2.54546,-0.611376 -2,0 -3.67273,1.096881 -3.67273,3.05688 0,1.870092 1.29091,2.859083 3.43637,2.859083 1.21818,0 2.30909,-0.503487 3.05454,-1.438532 v 0 h 0.0364 c 0.14545,0.665321 0.76363,1.438532 1.78182,1.438532 z m -4.27273,-2.013945 c -0.89091,0 -1.34546,-0.32367 -1.34546,-0.988991 0,-0.737247 0.70909,-1.132844 1.8,-1.132844 0.58182,0 1.21819,0.161835 1.72728,0.485505 -0.10909,0.845137 -1.12728,1.63633 -2.18182,1.63633 z m 11.12727,2.013945 c 0.92727,0 1.61818,-0.251744 1.96364,-0.683303 0.2,-0.251743 0.30909,-0.575413 0.30909,-0.935046 0,-0.647339 -0.43636,-1.042936 -0.90909,-1.042936 -0.49091,0 -0.6,0.251744 -1.07273,0.251744 -0.65454,0 -0.76364,-0.449542 -0.76364,-1.186789 v 0 -3.506422 h 1.36364 c 0.61818,0 1.12727,-0.503486 1.12727,-1.132844 0,-0.611376 -0.50909,-1.114862 -1.12727,-1.114862 v 0 h -1.36364 V 9.4968795 c 0,-0.5933944 -0.2909,-1.0968806 -1,-1.0968806 -0.54545,0 -0.92727,0.4135779 -1.18181,1.024954 -0.14546,0.3416513 -0.23637,0.7372471 -0.30909,1.1688071 v 0 h -0.6 c -0.61819,0 -1.12728,0.503486 -1.12728,1.114862 0,0.629358 0.50909,1.132844 1.12728,1.132844 v 0 h 0.4909 v 3.668257 c 0,1.816146 0.83637,3.434495 3.07273,3.434495 z"
       stroke="none"
       fill="#000000"
       fill-rule="nonzero"
       id="path150"
       style="stroke-width:0.258307;fill:#ffffff" />
    <g
       id="g821">
      <path
         d="M 6.5394444,23.761457 C 4.461522,23.105435 3.4225608,21.863853 3.4225608,20.036687 c 0,-2.740738 3.1218187,-4.447014 1.6155067,-5.806765 -0.966156,-0.872126 -4.99212541,0.412278 -4.47264429,5.935205 0.22223068,2.362712 2.46753229,5.137614 7.01298239,5.266054"
         stroke="none"
         fill="#ff7600"
         fill-rule="nonzero"
         id="path154"
         style="stroke-width:0.258307" />
      <path
         d="m 5.3882606,13.85046 c -0.7617144,-0.687587 -2.3196367,-0.428339 -3.4821174,0.559196 -1.38498208,1.176552 -2.10568063,3.169486 -1.85796501,5.803053 0.28949719,3.077842 3.20527681,5.610249 7.51540741,5.732036 0.2867793,0.0081 0.5258962,-0.215266 0.534104,-0.498888 0.00818,-0.283622 -0.2176624,-0.520106 -0.5044417,-0.528224 -3.7991434,-0.10735 -6.271123,-2.254308 -6.5105802,-4.800073 -0.21785198,-2.316164 0.3837689,-3.979827 1.5004522,-4.928456 0.8090365,-0.687277 1.8024392,-0.852587 2.104725,-0.579721 v 0 l 0.041818,0.03861 0.038468,0.03759 0.034961,0.03694 0.031403,0.03666 c 0.00493,0.0061 0.00971,0.01222 0.014338,0.01834 v 0 l 0.025818,0.03694 0.021974,0.03759 c 0.063403,0.120451 0.067325,0.256261 -0.0034,0.460443 v 0 l -0.024831,0.06681 -0.029922,0.07173 -0.035091,0.07702 -0.040364,0.08267 -0.045766,0.0887 -0.051247,0.09511 -0.056857,0.101876 -0.1309611,0.225549 -0.1970909,0.326649 -0.2877144,0.465186 c -0.7368832,1.183064 -1.0902858,2.06437 -1.0902858,3.122898 0,2.064268 1.196104,3.493655 3.4783901,4.214205 0.2732988,0.08629 0.5655845,-0.06288 0.6528573,-0.3332 0.087247,-0.270289 -0.06361,-0.559383 -0.3369092,-0.645669 -1.8735587,-0.591494 -2.755377,-1.645295 -2.755377,-3.235336 0,-0.793067 0.271039,-1.497332 0.8682079,-2.4743 v 0 l 0.5779741,-0.920866 0.031636,-0.05204 C 5.6200268,16.255873 5.7561308,15.987327 5.8470139,15.726149 6.0964165,15.00947 5.9688061,14.37452 5.3882606,13.85046 Z"
         stroke="none"
         fill="#000000"
         fill-rule="nonzero"
         id="path158"
         style="stroke-width:0.258307" />
      <path
         d="m 6.2530088,16.415576 0.024672,0.04071 c 0.5912297,0.95079 1.6332844,1.598027 2.8316404,1.650379 0.8128573,-1.669773 2.2404418,-2.868517 1.1235328,-3.876743 -0.6895846,-0.622497 -2.9380785,-0.146314 -3.9798452,2.185654 z"
         stroke="none"
         fill="#000000"
         fill-rule="nonzero"
         id="path162"
         style="stroke-width:0.258307" />
      <path
         d="m 13.682309,26.707424 c 3.598026,0 7.792209,0.412371 7.792209,-4.621566 0,-5.033912 -6.259326,-11.81063 -7.792209,-11.81063 -1.532884,0 -7.7922094,6.776718 -7.7922094,11.81063 0,5.033937 4.1941824,4.621566 7.7922094,4.621566 z"
         stroke="none"
         fill="#ff7600"
         fill-rule="nonzero"
         id="path166"
         style="stroke-width:0.258307" />
      <path
         d="m 13.682309,9.7614666 c -0.466598,0 -1.146182,0.3788144 -1.919585,1.0185394 v 0 l -0.150831,0.127041 -0.152987,0.133372 -0.154935,0.139504 c -0.02597,0.02375 -0.05203,0.04775 -0.07813,0.07199 v 0 l -0.157533,0.148351 c -0.02636,0.0252 -0.0528,0.05064 -0.07932,0.07631 v 0 l -0.159637,0.156772 -0.160857,0.162148 -0.161844,0.16734 c -0.02707,0.02831 -0.05413,0.05683 -0.08125,0.08555 v 0 l -0.162987,0.174759 -0.163507,0.179459 -0.1638178,0.184004 -0.163948,0.188319 -0.1639221,0.192455 -0.1636364,0.196437 -0.1632208,0.200161 -0.1625715,0.203758 c -0.027039,0.03424 -0.054026,0.06861 -0.080987,0.103138 v 0 l -0.1612728,0.208767 -0.080208,0.105526 c -2.0962107,2.772873 -3.4247018,5.694531 -3.4247018,8.100682 0,2.173442 0.7449222,3.592605 2.1748783,4.367383 0.7361611,0.398858 1.5669405,0.610554 2.6744729,0.707577 v 0 l 0.233143,0.01844 c 0.03953,0.0028 0.07943,0.0055 0.119663,0.008 v 0 l 0.245662,0.01382 0.254468,0.01089 0.26361,0.0081 c 0.04473,0.0011 0.08984,0.0022 0.135351,0.0031 v 0 l 0.278026,0.0042 c 0.04717,5.13e-4 0.09475,8.99e-4 0.142753,0.0012 v 0 l 0.589896,-2.83e-4 1.092754,-0.0071 0.429506,8.48e-4 1.099273,0.0071 0.366753,-5.91e-4 0.283143,-0.003 c 0.09273,-0.0014 0.183792,-0.0032 0.273273,-0.0055 v 0 l 0.26374,-0.0081 0.254598,-0.01089 0.245766,-0.01382 c 0.04023,-0.0025 0.08013,-0.0052 0.119688,-0.008 v 0 l 0.233247,-0.01844 c 1.107896,-0.09702 1.938676,-0.308719 2.674832,-0.707577 1.429948,-0.774778 2.174883,-2.193941 2.174883,-4.367383 0,-2.364664 -1.283065,-5.227214 -3.316961,-7.957111 v 0 L 18.489089,13.87965 18.327816,13.670883 18.165634,13.465429 18.002725,13.263444 c -0.02722,-0.03337 -0.05444,-0.06658 -0.08169,-0.09962 v 0 L 17.7574,12.967389 17.593478,12.774934 17.42953,12.586615 17.265712,12.402611 17.102205,12.223152 16.939218,12.048393 16.776932,11.878539 16.615582,11.71377 c -0.02683,-0.02703 -0.05358,-0.05383 -0.08031,-0.08042 v 0 l -0.159636,-0.156772 c -0.02652,-0.02567 -0.05296,-0.05111 -0.07933,-0.07631 v 0 l -0.157532,-0.148351 c -0.0261,-0.02425 -0.05216,-0.04825 -0.07813,-0.07199 v 0 L 15.905712,11.040419 15.752725,10.907047 15.601893,10.780006 C 14.828491,10.140281 14.148906,9.7614666 13.682309,9.7614666 Z m 0,1.0275224 c 0.03719,0 0.106857,0.02046 0.201298,0.06259 v 0 l 0.07535,0.03568 c 0.0266,0.01326 0.0546,0.02789 0.08392,0.04392 v 0 l 0.09179,0.05227 c 0.0159,0.0094 0.0321,0.01918 0.0486,0.0293 0.288883,0.177355 0.635636,0.443646 1.015792,0.781924 0.809221,0.720068 1.710676,1.711242 2.53813,2.805785 1.974364,2.61168 3.217845,5.346406 3.217845,7.485401 0,1.817816 -0.559273,2.883331 -1.635091,3.466219 -0.566286,0.306819 -1.242624,0.484015 -2.155403,0.573718 v 0 l -0.214909,0.01916 c -0.07306,0.0059 -0.147585,0.01128 -0.223637,0.01618 v 0 l -0.232727,0.01328 c -0.07912,0.004 -0.159818,0.0075 -0.242156,0.01053 v 0 l -0.251922,0.0079 -0.262052,0.0053 -0.272519,0.003 -0.576858,-3.08e-4 -1.127558,-0.0071 -0.406026,8.99e-4 -1.095975,0.0071 -0.35935,-5.65e-4 -0.272364,-0.003 -0.261896,-0.0053 -0.251792,-0.0079 c -0.08229,-0.0031 -0.162961,-0.0066 -0.242052,-0.01053 v 0 l -0.232624,-0.01328 c -0.076,-0.0049 -0.150493,-0.0103 -0.223532,-0.01618 v 0 L 10.19976,26.125822 C 9.2872949,26.036092 8.6109572,25.858896 8.0446973,25.552077 6.9688634,24.969189 6.4095802,23.903674 6.4095802,22.085858 c 0,-2.138995 1.2434885,-4.873721 3.2178447,-7.485401 0.8274551,-1.094543 1.7289091,-2.085717 2.5381301,-2.805785 0.380156,-0.338278 0.726909,-0.604569 1.015792,-0.781924 v 0 l 0.0486,-0.0293 0.09179,-0.05227 c 0.02933,-0.01602 0.05732,-0.03066 0.08392,-0.04392 v 0 l 0.07535,-0.03568 c 0.09444,-0.04213 0.164104,-0.06259 0.201299,-0.06259 z"
         stroke="none"
         fill="#000000"
         fill-rule="nonzero"
         id="path170"
         style="stroke-width:0.258307" />
      <path
         d="m 20.670494,18.386046 c 0.498332,1.224471 0.804023,2.451448 0.804023,3.594994 0,0.845728 -0.112026,1.548888 -0.316161,2.133343 -1.438353,-0.213519 -2.540982,-1.440279 -2.540982,-2.921736 0,-1.305208 0.855891,-2.412718 2.042886,-2.803516 v 0 z"
         stroke="none"
         fill="#000000"
         fill-rule="nonzero"
         id="path174"
         style="stroke-width:0.258307" />
      <path
         d="m 6.7149621,18.659257 c 0.9064131,0.516651 1.5128002,1.457908 1.5128002,2.533401 0,1.317395 -0.9098599,2.433387 -2.1664907,2.81429 -0.111651,-0.482653 -0.171172,-1.031915 -0.171172,-1.656803 0,-1.172764 0.3128416,-2.43077 0.8232183,-3.686518 v 0 z"
         stroke="none"
         fill="#000000"
         fill-rule="nonzero"
         id="path178"
         style="stroke-width:0.258307" />
      <path
         d="M 8.6524714,13.743117 8.391252,15.33624 c -0.020272,0.123629 0.052561,0.243697 0.1723966,0.2842 0.8572853,0.289735 2.5202054,0.434603 4.9887764,0.434603 1.418079,0 3.163793,-0.0089 4.025975,-0.12844 0.432468,-0.05994 0.778779,-0.231198 1.038961,-0.513761 v 0 l 1.393481,-1.669725 z"
         stroke="none"
         fill="#ffffff"
         fill-rule="nonzero"
         id="path182"
         style="stroke-width:0.258307" />
      <path
         d="M 21.113185,13.229356 H 8.2104455 L 7.8784703,15.254 c -0.060817,0.370889 0.1576886,0.731095 0.5171934,0.8526 0.1184909,0.04005 0.249639,0.0774 0.3935299,0.112102 v 0 l 0.1481429,0.03381 0.1566571,0.03206 c 0.053639,0.01038 0.1087066,0.02047 0.1651949,0.03029 v 0 l 0.1737481,0.02854 c 0.029673,0.0046 0.059704,0.0091 0.090086,0.01361 v 0 l 0.1866208,0.02595 c 0.031823,0.0042 0.063997,0.0083 0.096535,0.0123 v 0 l 0.1995346,0.02335 c 0.03397,0.0038 0.06831,0.0074 0.103003,0.01105 v 0 l 0.212488,0.02076 0.221148,0.01906 0.229845,0.01737 c 0.03904,0.0028 0.07841,0.0054 0.118181,0.0081 v 0 l 0.242883,0.01482 0.251637,0.01315 0.26039,0.01148 0.269142,0.0098 0.420234,0.01161 0.291169,0.0057 0.3,0.0041 0.466624,0.003 1.090649,-0.0021 0.698805,-0.0061 0.418676,-0.0065 0.383247,-0.0087 0.432234,-0.01431 0.235896,-0.01056 0.219298,-0.01212 0.137403,-0.009 0.130675,-0.0098 0.183871,-0.01613 0.170129,-0.01801 0.106182,-0.01305 c 0.01722,-0.0023 0.03421,-0.0045 0.05099,-0.0069 0.511455,-0.07087 0.944104,-0.272216 1.280338,-0.603567 v 0 l 0.06205,-0.06397 0.02512,-0.02796 z m -2.204909,1.027523 -0.681299,0.81611 -0.03831,0.03988 c -0.162026,0.159449 -0.386571,0.26394 -0.682364,0.304943 v 0 l -0.09442,0.01227 -0.153429,0.01698 -0.227584,0.02006 -0.124052,0.009 -0.269663,0.01593 -0.22187,0.01027 -0.323143,0.01158 -0.450104,0.01129 -0.398857,0.0067 -0.785922,0.0072 -0.904831,0.0022 -0.459611,-0.0018 -0.442987,-0.0054 -0.283974,-0.0056 -0.274857,-0.0071 -0.265688,-0.0087 -0.256546,-0.01027 -0.247377,-0.01182 -0.238181,-0.01337 -0.228936,-0.01491 -0.219714,-0.01643 -0.210439,-0.01795 -0.201156,-0.01946 c -0.03275,-0.0034 -0.06511,-0.0068 -0.09709,-0.01029 v 0 l -0.1871897,-0.02171 c -0.060836,-0.0075 -0.1201221,-0.01522 -0.1778494,-0.0232 v 0 l -0.1684883,-0.02468 -0.1591117,-0.02616 c -0.051468,-0.009 -0.1013741,-0.01817 -0.1497066,-0.02762 v 0 l -0.1402857,-0.02908 -0.1308442,-0.03053 -0.072174,-0.01868 0.1540286,-0.939669 z"
         stroke="none"
         fill="#000000"
         fill-rule="nonzero"
         id="path186"
         style="stroke-width:0.258307" />
      <path
         d="m 9.8511392,27.357794 c 1.4703638,0 2.6623378,-0.133398 2.6623378,-1.00215 0,-0.868745 -1.191974,-2.080418 -2.6623378,-2.080418 -1.4703691,0 -2.6623381,1.211673 -2.6623381,2.080418 0,0.868752 1.191969,1.00215 2.6623381,1.00215 z m 7.9220788,0 c 1.470364,0 2.662338,-0.133398 2.662338,-1.00215 0,-0.868745 -1.191974,-2.080418 -2.662338,-2.080418 -1.470364,0 -2.662338,1.211673 -2.662338,2.080418 0,0.868752 1.191974,1.00215 2.662338,1.00215 z"
         stroke="none"
         fill="#ff7600"
         fill-rule="nonzero"
         id="path190"
         style="stroke-width:0.258307" />
      <path
         d="m 9.8511392,23.761465 c -1.6284185,0 -3.1818187,1.326809 -3.1818187,2.594187 0,0.672051 0.4369637,1.108877 1.1509482,1.319211 0.2917715,0.08598 0.629491,0.139023 1.0450963,0.168025 v 0 l 0.197465,0.01174 c 0.1354857,0.0067 0.2788026,0.01128 0.4309065,0.01395 v 0 l 0.2348312,0.0026 c 0.040286,2.31e-4 0.081117,3.34e-4 0.1225715,3.34e-4 v 0 l 0.2416888,-0.0013 c 0.195662,-0.0022 0.377272,-0.0072 0.546623,-0.01562 v 0 l 0.197455,-0.01174 c 0.41561,-0.029 0.753324,-0.08205 1.045091,-0.168025 0.714,-0.210334 1.150961,-0.64716 1.150961,-1.319211 0,-1.267378 -1.553403,-2.594187 -3.1818188,-2.594187 z m 0,1.027523 c 1.0856888,0 2.1428578,0.902964 2.1428578,1.566664 0,0.161064 -0.164909,0.286858 -0.539819,0.370396 v 0 l -0.09403,0.01924 -0.102233,0.0176 -0.110572,0.01593 -0.119065,0.01423 -0.127662,0.01256 -0.136442,0.01079 -0.145324,0.0091 -0.154338,0.0073 -0.163533,0.0055 -0.172831,0.0037 -0.1822855,0.0018 H 9.7564119 l -0.1822858,-0.0018 -0.1728312,-0.0037 -0.1635272,-0.0055 -0.1543559,-0.0073 -0.1453195,-0.0091 -0.1364286,-0.01079 -0.1276702,-0.01256 -0.1190519,-0.01423 -0.1105767,-0.01593 -0.1022338,-0.0176 -0.094029,-0.01924 C 7.873196,26.64251 7.7082817,26.516716 7.7082817,26.355652 c 0,-0.6637 1.057169,-1.566664 2.1428575,-1.566664 z m 7.9220788,-1.027523 c -1.628416,0 -3.181818,1.326809 -3.181818,2.594187 0,0.672051 0.436961,1.108877 1.150961,1.319211 0.291766,0.08598 0.62948,0.139023 1.045091,0.168025 v 0 l 0.197455,0.01174 c 0.13548,0.0067 0.278805,0.01128 0.430909,0.01395 v 0 l 0.234831,0.0026 c 0.04029,2.31e-4 0.08112,3.34e-4 0.122571,3.34e-4 v 0 l 0.241689,-0.0013 c 0.195662,-0.0022 0.377272,-0.0072 0.546623,-0.01562 v 0 l 0.197455,-0.01174 c 0.41561,-0.029 0.753325,-0.08205 1.045091,-0.168025 0.714,-0.210334 1.150961,-0.64716 1.150961,-1.319211 0,-1.267378 -1.553403,-2.594187 -3.181819,-2.594187 z m 0,1.027523 c 1.085689,0 2.142858,0.902964 2.142858,1.566664 0,0.161064 -0.164909,0.286858 -0.539818,0.370396 v 0 l -0.09403,0.01924 -0.102234,0.0176 -0.110572,0.01593 -0.119065,0.01423 -0.127662,0.01256 -0.136442,0.01079 -0.145324,0.0091 -0.154338,0.0073 -0.163532,0.0055 -0.172832,0.0037 -0.182285,0.0018 h -0.189455 l -0.182286,-0.0018 -0.172831,-0.0037 -0.163532,-0.0055 -0.154338,-0.0073 -0.145325,-0.0091 -0.136441,-0.01079 -0.127663,-0.01256 -0.119065,-0.01423 -0.110571,-0.01593 -0.102234,-0.0176 -0.09403,-0.01924 c -0.374909,-0.08354 -0.539818,-0.209332 -0.539818,-0.370396 0,-0.6637 1.057169,-1.566664 2.142857,-1.566664 z"
         stroke="none"
         fill="#000000"
         fill-rule="nonzero"
         id="path194"
         style="stroke-width:0.258307" />
      <path
         d="m 18.118026,1.6811662 c 1.143156,-0.057902 2.287821,0.00664 3.433975,0.1936131 1.719221,0.2804626 3.479273,1.2578706 3.691169,1.7887068 v 0 l -3.079585,2.858458 z"
         stroke="none"
         fill="#ff7600"
         fill-rule="nonzero"
         id="path198"
         style="stroke-width:0.258307" />
      <path
         d="m 18.091969,1.168118 c -0.426565,0.021609 -0.645954,0.5147966 -0.37384,0.8404006 v 0 l 4.045542,4.8407601 c 0.190987,0.2285211 0.537351,0.2502018 0.755922,0.047317 v 0 L 25.599178,4.0381562 C 25.754451,3.8940204 25.805074,3.6707757 25.726867,3.474881 25.536503,2.9979512 24.744269,2.4424749 23.762399,2.0109205 v 0 L 23.58723,1.9360911 C 23.49876,1.8993621 23.408996,1.8636891 23.318217,1.8292133 v 0 L 23.135438,1.7619003 C 22.85949,1.6634405 22.576191,1.576584 22.293204,1.505089 v 0 L 22.104684,1.459747 C 21.947749,1.4239198 21.791437,1.3930923 21.637074,1.3679124 20.454346,1.1749657 19.272424,1.1083311 18.091969,1.168118 Z m 3.376014,1.2136149 c 0.750805,0.1224807 1.566753,0.3997886 2.258234,0.7506593 v 0 l 0.06595,0.033939 c 0.273844,0.1429002 0.507039,0.2894532 0.676338,0.4130462 v 0 l 0.05886,0.044076 -2.315377,2.1493157 -3.005226,-3.5954847 0.123833,0.00233 c 0.711671,0.018393 1.424094,0.085752 2.137393,0.2021163 z"
         stroke="none"
         fill="#000000"
         fill-rule="nonzero"
         id="path202"
         style="stroke-width:0.258307" />
      <path
         d="M 25.18876,3.5617893 C 25.461825,4.4467102 24.466201,6.4399888 23.334996,7.7855299 23.24865,7.8882308 23.100843,8.0453134 22.891559,8.2567776 22.471507,6.8575741 22.344578,6.0461085 22.510796,5.8224348 23.445874,4.5640893 25.15702,3.4589641 25.18876,3.5617893 Z"
         stroke="none"
         fill="#ffffff"
         fill-rule="nonzero"
         id="path206"
         style="stroke-width:0.258307" />
      <path
         d="m 25.28942,3.053221 c 0.176519,0.037276 0.33535,0.1613697 0.396208,0.3586094 0.173922,0.5636861 -0.01797,1.4203216 -0.437507,2.3366999 v 0 l -0.08691,0.1840036 C 24.816796,6.64042 24.343981,7.3742768 23.805095,8.02904 v 0 l -0.09869,0.1178055 -0.06483,0.073185 -0.119382,0.1288514 -0.146462,0.1523303 -0.112922,0.1149284 c -0.27712,0.2800259 -0.75647,0.162503 -0.869239,-0.2131336 v 0 L 22.30311,8.0963685 22.22183,7.8088933 22.17283,7.6276126 22.12802,7.4544236 22.08746,7.2891209 22.05119,7.1315759 22.01926,6.9815833 21.99171,6.8389374 21.96859,6.7035356 c -0.09052,-0.5714825 -0.05497,-0.9450384 0.123588,-1.1853477 0.448459,-0.6034924 1.086877,-1.2125283 1.778018,-1.7425297 0.27175,-0.2083739 0.535452,-0.3909185 0.746766,-0.5190015 0.106104,-0.064334 0.197688,-0.1141765 0.273974,-0.1478975 0.05927,-0.026207 0.113273,-0.045214 0.174857,-0.056902 0.06953,-0.013202 0.139948,-0.016302 0.223611,0.00136 z m -0.678754,1.4726239 0.0061,-0.021272 -0.109948,0.083111 -0.115862,0.090106 c -0.53773,0.4240947 -1.0314,0.8967911 -1.387442,1.3517166 v 0 l -0.04068,0.053174 -0.0026,0.036991 c -0.0026,0.069204 0.0028,0.1625284 0.01718,0.2779192 v 0 l 0.0173,0.1226349 0.01122,0.068459 c 0.02326,0.1361981 0.05503,0.2904036 0.09534,0.4623339 v 0 l 0.03757,0.1549247 0.0399,-0.051325 c 0.673816,-0.875321 1.211598,-1.8907525 1.431922,-2.6287733 z"
         stroke="none"
         fill="#000000"
         fill-rule="nonzero"
         id="path210"
         style="stroke-width:0.258307" />
      <path
         d="M 9.5264326,2.1187998 C 8.8015753,1.5332839 8.0170298,1.1193335 7.1727439,0.87694858 5.9063541,0.51337337 3.5527703,0.3737776 3.5524057,0.69361231 v 0 L 6.1461853,5.3957961 Z"
         stroke="none"
         fill="#000000"
         fill-rule="nonzero"
         id="path214"
         style="stroke-width:0.258307" />
      <path
         d="m 4.8838424,0.41244519 c 0.8014988,0.0433244 1.7015015,0.17698556 2.3140471,0.35284532 0.8613508,0.24728359 1.6614548,0.66944399 2.3996367,1.26572829 0.059948,0.048419 0.064026,0.1376161 0.00875,0.1911963 v 0 l -3.3802343,3.276986 c -0.061532,0.059648 -0.1636624,0.044595 -0.2049351,-0.030209 v 0 L 3.4273345,0.76681638 C 3.416903,0.74790482 3.4114733,0.72670189 3.4114733,0.70515987 3.4116834,0.52090294 3.6365385,0.43137719 4.0485825,0.40482531 v 0 l 0.116987,-0.005703 c 0.020265,-6.9769e-4 0.040907,-0.00127 0.061925,-0.001725 v 0 l 0.1305948,-0.001286 0.1394572,0.001478 0.1481481,0.0041 0.1566701,0.006581 c 0.026813,0.001294 0.053974,0.002685 0.081478,0.004175 z M 3.8968942,0.68111584 c -0.07459,0.009772 -0.1351221,0.0220763 -0.1794988,0.036156 v 0 L 3.6994837,0.72339326 6.1670062,5.196724 9.3199937,2.1400903 9.179708,2.0341296 C 8.5399416,1.5620754 7.8553701,1.2215363 7.1254998,1.0119885 6.5337595,0.84211068 5.6527905,0.71127363 4.8696657,0.66894226 v 0 L 4.6865722,0.6606707 4.5132917,0.65613676 c -0.2239429,-0.003548 -0.4183741,0.0029 -0.5699768,0.0194202 v 0 z"
         stroke="none"
         fill="#000000"
         fill-rule="nonzero"
         id="path218"
         style="stroke-width:0.258307" />
      <path
         d="m 3.6735764,0.99466802 c -0.3283494,0.87649238 0,4.82630028 1.1464971,6.65249088 C 4.9276008,7.8184212 5.5844009,7.1253828 5.8391801,6.4731884 6.0939568,5.8209683 6.236001,4.8461317 6.0939568,4.2556914 5.8044529,3.0523158 4.9976579,1.9653072 3.6735764,0.99466802 Z"
         stroke="none"
         fill="#ffffff"
         fill-rule="nonzero"
         id="path222"
         style="stroke-width:0.258307" />
      <path
         d="M 3.1427924,0.8638248 C 2.9127415,1.4779187 2.9350272,2.7895001 3.1465023,4.16934 v 0 l 0.041853,0.2593467 C 3.4158893,5.7712737 3.8172712,7.141013 4.3350843,7.9658055 4.5727362,8.3443449 4.9264973,8.2971816 5.225261,8.1080404 5.3520164,8.0277908 5.4850632,7.9071597 5.619219,7.7577065 5.888284,7.4579781 6.1379204,7.0699341 6.2801022,6.7059855 6.5852451,5.924837 6.7178166,4.8583711 6.5556607,4.1844189 6.2354529,2.8534069 5.3554164,1.6677124 3.9392577,0.62957247 3.6611642,0.42571323 3.263055,0.54280225 3.1427924,0.8638248 Z m 0.8663744,1.1519738 0.028351,0.0255 C 4.8424166,2.781413 5.3410219,3.574712 5.5449232,4.4222642 5.6531154,4.8720109 5.5459732,5.7340512 5.310944,6.3356915 v 0 l -0.031005,0.07393 C 5.2129436,6.5595635 5.117006,6.720602 5.0096553,6.8679231 v 0 L 4.9600761,6.9335304 4.9252968,6.854591 C 4.3640993,5.5532334 4.0083694,3.4509731 4.0079097,2.1540929 v 0 z"
         stroke="none"
         fill="#000000"
         fill-rule="nonzero"
         id="path226"
         style="stroke-width:0.258307" />
      <path
         d="m 13.812179,14.385319 c 4.745065,0 9.480521,-1.049948 9.480521,-5.0578267 0,-4.0078526 -4.735456,-8.8137309 -9.480521,-8.8137309 -4.7450659,0 -9.4805212,4.8058783 -9.4805212,8.8137309 0,4.0078787 4.7354553,5.0578267 9.4805212,5.0578267 z"
         stroke="none"
         fill="#ff7600"
         fill-rule="nonzero"
         id="path230"
         style="stroke-width:0.258307" />
      <path
         d="M 13.812179,0 C 8.9242559,0 3.8121772,4.8976361 3.8121772,9.3274923 c 0,2.1019007 1.1728391,3.6006197 3.2733512,4.5030927 1.7117924,0.73545 4.0096626,1.068496 6.7266506,1.068496 2.716987,0 5.014858,-0.333046 6.72665,-1.068496 2.10052,-0.902473 3.273351,-2.401192 3.273351,-4.5030927 C 23.81218,4.8976361 18.700102,0 13.812179,0 Z m 0,1.0275228 c 4.321377,0 8.96104,4.4450379 8.96104,8.2999695 0,2.9901427 -3.065974,4.4270307 -8.296079,4.5371807 v 0 l -0.329688,0.0052 c -0.110832,0.0012 -0.222598,0.0017 -0.335273,0.0017 -0.112676,0 -0.224442,-5.65e-4 -0.335273,-0.0017 v 0 l -0.329688,-0.0052 C 7.9171389,13.754523 4.8511384,12.317635 4.8511384,9.3274923 c 0,-3.8549316 4.6396631,-8.2999695 8.9610406,-8.2999695 z"
         stroke="none"
         fill="#000000"
         fill-rule="nonzero"
         id="path234"
         style="stroke-width:0.258307" />
      <path
         d="M 11.215402,1.1911031 11.202934,0.41894031 10.487635,0.72866908 C 7.5412973,2.0044619 4.9754631,4.8153251 4.1155695,7.656066 v 0 L 3.7372188,8.9059704 4.8756943,8.2467631 C 5.6347905,7.8072146 6.2233153,7.1548146 6.5905959,6.2885872 v 0 L 6.6336089,6.1836258 C 6.9779466,5.313314 7.4320505,4.9423782 8.4450637,4.5474499 v 0 L 8.6242845,4.4794022 8.9312196,4.3655526 c 0.029273,-0.011046 0.057948,-0.021963 0.086026,-0.032727 v 0 l 0.1614805,-0.063193 0.1484676,-0.060855 c 0.047454,-0.019985 0.092961,-0.039739 0.1367013,-0.059365 v 0 L 9.5901288,4.0907417 C 9.9138431,3.9344041 10.139142,3.7761656 10.374077,3.5442793 c 0.525922,-0.5191302 0.803169,-1.2515279 0.840364,-2.2818224 9.61e-4,-0.026328 0.0013,-0.047788 9.61e-4,-0.071354 z"
         stroke="none"
         fill="#000000"
         fill-rule="nonzero"
         id="path238"
         style="stroke-width:0.258307" />
      <path
         d="m 11.393327,4.2281535 c 0.284434,0.084771 0.638579,-0.359412 0.791005,-0.9921066 0.152429,-0.6326921 0.04542,-1.2143059 -0.239015,-1.2990714 -0.284434,-0.084766 -0.63858,0.3594172 -0.791005,0.9921143 -0.152426,0.6326921 -0.04542,1.2143188 0.239015,1.2990637 z m 4.83771,0 c -0.284442,0.084771 -0.638598,-0.359412 -0.791013,-0.9921066 -0.152416,-0.6326921 -0.0454,-1.2143059 0.239013,-1.2990714 0.284441,-0.084766 0.638597,0.3594172 0.791013,0.9921143 0.152415,0.6326921 0.0454,1.2143188 -0.239013,1.2990637 z M 13.812179,1.4128438 c -0.70073,0 -1.330504,3.3394491 0,3.3394491 1.330494,0 0.700728,-3.3394491 0,-3.3394491 z"
         stroke="none"
         fill="#000000"
         fill-rule="nonzero"
         id="path242"
         style="stroke-width:0.258307" />
      <path
         d="M 13.637939,9.4638985 13.306411,9.2999573 c -0.122835,-0.06074 -0.200425,-0.1849028 -0.200425,-0.3207207 0,-0.1980373 0.162326,-0.3585798 0.362569,-0.3585798 v 0 h 0.687247 c 0.137335,0 0.262875,0.076736 0.324291,0.1982187 0.08955,0.1771302 0.01696,0.392517 -0.162146,0.4810818 v 0 l -0.33153,0.1639412 c -0.109683,0.05424 -0.238792,0.05424 -0.348478,0 z"
         stroke="none"
         fill="#000000"
         fill-rule="nonzero"
         id="path246"
         style="stroke-width:0.258307" />
      <path
         d="m 11.897981,9.9019052 c 0.208527,-0.052493 0.4206,0.072134 0.47368,0.2783648 0.181426,0.704906 0.404751,0.994136 0.614164,0.994136 0.231912,0 0.365637,-0.138554 0.443746,-0.543208 0.04035,-0.209032 0.244402,-0.346137 0.455763,-0.30623 0.211356,0.03991 0.349987,0.241712 0.309637,0.450741 -0.142276,0.737042 -0.559509,1.169339 -1.209146,1.169339 -0.672127,0 -1.109964,-0.567044 -1.369307,-1.574676 -0.05308,-0.206232 0.07294,-0.4159705 0.281463,-0.4684668 z"
         stroke="none"
         fill="#000000"
         fill-rule="nonzero"
         id="path250"
         style="stroke-width:0.258307" />
      <path
         d="m 15.726376,9.9019052 c -0.208527,-0.052493 -0.4206,0.072134 -0.47368,0.2783648 -0.181426,0.704906 -0.404751,0.994136 -0.614164,0.994136 -0.231909,0 -0.365636,-0.138554 -0.443745,-0.543208 -0.04035,-0.209032 -0.244403,-0.346137 -0.455764,-0.30623 -0.211355,0.03991 -0.349988,0.241712 -0.309638,0.450741 0.142276,0.737042 0.559511,1.169339 1.209147,1.169339 0.672127,0 1.109964,-0.567044 1.369307,-1.574676 0.05308,-0.206232 -0.07294,-0.4159705 -0.281463,-0.4684668 z"
         stroke="none"
         fill="#000000"
         fill-rule="nonzero"
         id="path254"
         style="stroke-width:0.258307" />
      <path
         d="m 7.058931,7.3210999 c 0,-1.2768409 1.046608,-2.3119263 2.3376627,-2.3119263 1.2910653,0 2.3376623,1.0350854 2.3376623,2.3119263 0,1.2768512 -1.046597,2.3119263 -2.3376623,2.3119263 -1.2910547,0 -2.3376627,-1.0350751 -2.3376627,-2.3119263 z"
         stroke="none"
         fill="#000000"
         fill-rule="nonzero"
         id="path258"
         style="stroke-width:0.258307" />
      <path
         d="m 7.058931,7.3210999 c 0,-1.2768409 1.046608,-2.3119263 2.3376627,-2.3119263 1.2910653,0 2.3376623,1.0350854 2.3376623,2.3119263 0,1.2768512 -1.046597,2.3119263 -2.3376623,2.3119263 -1.2910547,0 -2.3376627,-1.0350751 -2.3376627,-2.3119263 z"
         stroke="none"
         fill="none"
         id="path262"
         style="stroke-width:0.258307" />
      <path
         d="m 9.1368534,6.4862376 c 0,-0.5320179 0.4360858,-0.9633026 0.9740266,-0.9633026 0.53794,0 0.974026,0.4312847 0.974026,0.9633026 0,0.5320179 -0.436086,0.9633026 -0.974026,0.9633026 -0.5379408,0 -0.9740266,-0.4312847 -0.9740266,-0.9633026 z"
         stroke="none"
         fill="#ffffff"
         fill-rule="nonzero"
         id="path266"
         style="stroke-width:0.258307" />
      <path
         d="m 8.6173728,7.4924368 c 0,-0.1418714 0.1162896,-0.2568807 0.2597403,-0.2568807 0.1434494,0 0.2597403,0.1150093 0.2597403,0.2568807 0,0.1418701 -0.1162909,0.2568807 -0.2597403,0.2568807 -0.1434507,0 -0.2597403,-0.1150106 -0.2597403,-0.2568807 z"
         stroke="none"
         fill="#ffffff"
         fill-rule="nonzero"
         id="path270"
         style="stroke-width:0.258307" />
      <path
         d="m 15.890101,7.3210999 c 0,-1.2768409 1.046608,-2.3119263 2.337663,-2.3119263 1.291065,0 2.337662,1.0350854 2.337662,2.3119263 0,1.2768512 -1.046597,2.3119263 -2.337662,2.3119263 -1.291055,0 -2.337663,-1.0350751 -2.337663,-2.3119263 z"
         stroke="none"
         fill="#000000"
         fill-rule="nonzero"
         id="path274"
         style="stroke-width:0.258307" />
      <path
         d="m 15.890101,7.3210999 c 0,-1.2768409 1.046608,-2.3119263 2.337663,-2.3119263 1.291065,0 2.337662,1.0350854 2.337662,2.3119263 0,1.2768512 -1.046597,2.3119263 -2.337662,2.3119263 -1.291055,0 -2.337663,-1.0350751 -2.337663,-2.3119263 z"
         stroke="none"
         fill="none"
         id="path278"
         style="stroke-width:0.258307" />
      <path
         d="m 17.968024,6.4862376 c 0,-0.5320179 0.436086,-0.9633026 0.974026,-0.9633026 0.53794,0 0.974026,0.4312847 0.974026,0.9633026 0,0.5320179 -0.436086,0.9633026 -0.974026,0.9633026 -0.53794,0 -0.974026,-0.4312847 -0.974026,-0.9633026 z"
         stroke="none"
         fill="#ffffff"
         fill-rule="nonzero"
         id="path282"
         style="stroke-width:0.258307" />
      <path
         d="m 17.448543,7.4924368 c 0,-0.1418714 0.11629,-0.2568807 0.25974,-0.2568807 0.14345,0 0.259741,0.1150093 0.259741,0.2568807 0,0.1418701 -0.116291,0.2568807 -0.259741,0.2568807 -0.14345,0 -0.25974,-0.1150106 -0.25974,-0.2568807 z"
         stroke="none"
         fill="#ffffff"
         fill-rule="nonzero"
         id="path286"
         style="stroke-width:0.258307" />
      <path
         d="m 11.604386,17.339447 c 0,-0.993098 0.814029,-1.798165 1.818182,-1.798165 1.004156,0 1.818182,0.805067 1.818182,1.798165 0,0.993101 -0.814026,1.798165 -1.818182,1.798165 -1.004153,0 -1.818182,-0.805064 -1.818182,-1.798165 z"
         stroke="none"
         fill="#ffffff"
         fill-rule="nonzero"
         id="path290"
         style="stroke-width:0.258307" />
      <path
         d="m 13.422569,15.027521 c -1.291058,0 -2.337663,1.035083 -2.337663,2.311926 0,1.276852 1.046605,2.311927 2.337663,2.311927 1.291065,0 2.337662,-1.035075 2.337662,-2.311927 0,-1.276843 -1.046597,-2.311926 -2.337662,-2.311926 z m 0,1.027523 c 0.717247,0 1.298701,0.575045 1.298701,1.284403 0,0.709351 -0.581454,1.284404 -1.298701,1.284404 -0.717255,0 -1.298702,-0.575053 -1.298702,-1.284404 0,-0.709358 0.581447,-1.284403 1.298702,-1.284403 z"
         stroke="none"
         fill="#000000"
         fill-rule="nonzero"
         id="path294"
         style="stroke-width:0.258307" />
      <path
         d="m 17.578494,15.926747 c 1.558447,-0.25688 2.414167,-1.369893 2.60278,-2.413831 0.295246,-1.634195 -0.02018,-4.1005785 2.362545,-3.5614851 2.567144,0.5808241 1.528182,6.4890781 -2.108182,9.0578851"
         stroke="none"
         fill="#ff7600"
         fill-rule="nonzero"
         id="path298"
         style="stroke-width:0.258307" />
      <path
         d="m 22.660349,9.450419 c -1.079558,-0.2442476 -1.865377,0.026446 -2.322831,0.763086 -0.161507,0.260094 -0.269585,0.530921 -0.351767,0.883582 v 0 l -0.03156,0.145603 -0.02917,0.155335 c -0.0094,0.05352 -0.01842,0.108828 -0.02719,0.166094 v 0 l -0.02558,0.177852 c -0.0042,0.03068 -0.0083,0.06189 -0.01234,0.09366 v 0 l -0.02395,0.197384 -0.02335,0.211696 -0.05948,0.57644 -0.02935,0.250253 -0.02182,0.159292 -0.02314,0.144958 c -0.0027,0.01564 -0.0054,0.03121 -0.0082,0.0467 -0.177329,0.981489 -0.980166,1.800194 -2.176802,1.997452 -0.282998,0.04662 -0.474177,0.31134 -0.427009,0.591211 0.04717,0.279898 0.314821,0.468962 0.597816,0.422312 1.639084,-0.270161 2.775632,-1.429181 3.028749,-2.830234 v 0 l 0.0199,-0.115725 0.01839,-0.118807 0.01743,-0.125615 0.01706,-0.136095 0.01722,-0.150301 0.07187,-0.690547 0.03104,-0.263662 0.02133,-0.159528 c 0.0036,-0.02556 0.0072,-0.05061 0.01093,-0.07518 v 0 l 0.02257,-0.141656 0.02369,-0.130706 c 0.06488,-0.334639 0.14426,-0.560722 0.258078,-0.744027 0.209429,-0.337251 0.537715,-0.450338 1.205793,-0.299179 0.806442,0.182455 1.354805,1.124657 1.260208,2.349146 -0.151922,1.965651 -1.62652,4.42793 -3.554468,5.78986 -0.233455,0.164917 -0.287533,0.485787 -0.120754,0.716671 0.166754,0.230885 0.491195,0.284367 0.72465,0.11945 2.172026,-1.534374 3.810494,-4.270231 3.986494,-6.547684 0.130623,-1.690401 -0.701922,-3.1208203 -2.064416,-3.429091 z"
         stroke="none"
         fill="#000000"
         fill-rule="nonzero"
         id="path302"
         style="stroke-width:0.258307" />
      <path
         d="m 21.474518,12.587154 c 0,-0.425613 0.290725,-0.770642 0.649351,-0.770642 0.358626,0 0.64935,0.345029 0.64935,0.770642 0,0.425613 -0.290724,0.770642 -0.64935,0.770642 -0.358626,0 -0.649351,-0.345029 -0.649351,-0.770642 z"
         stroke="none"
         fill="#000000"
         fill-rule="nonzero"
         id="path306"
         style="stroke-width:0.258307" />
      <path
         d="m 21.214777,11.431191 c 0,-0.212807 0.11629,-0.385321 0.25974,-0.385321 0.14345,0 0.259741,0.172514 0.259741,0.385321 0,0.212808 -0.116291,0.385321 -0.259741,0.385321 -0.14345,0 -0.25974,-0.172513 -0.25974,-0.385321 z"
         stroke="none"
         fill="#000000"
         fill-rule="nonzero"
         id="path310"
         style="stroke-width:0.258307" />
      <path
         d="m 21.993998,11.17431 c 0,-0.212807 0.11629,-0.385321 0.25974,-0.385321 0.14345,0 0.259741,0.172514 0.259741,0.385321 0,0.212808 -0.116291,0.385321 -0.259741,0.385321 -0.14345,0 -0.25974,-0.172513 -0.25974,-0.385321 z"
         stroke="none"
         fill="#000000"
         fill-rule="nonzero"
         id="path314"
         style="stroke-width:0.258307" />
      <path
         d="m 22.773219,11.688072 c 0,-0.212807 0.11629,-0.385321 0.25974,-0.385321 0.14345,0 0.259741,0.172514 0.259741,0.385321 0,0.212808 -0.116291,0.385321 -0.259741,0.385321 -0.14345,0 -0.25974,-0.172513 -0.25974,-0.385321 z"
         stroke="none"
         fill="#000000"
         fill-rule="nonzero"
         id="path318"
         style="stroke-width:0.258307" />
      <path
         d="m 6.6692322,18.752338 c 0.5194806,-1.284404 0.9692079,-2.825692 3.1168836,-2.825688 2.0779222,0 2.5150652,2.283459 2.3847012,3.268961 -0.130363,0.985523 -0.333402,2.177424 -2.000208,2.084484 -1.1111998,-0.06196 -1.5153245,-1.022591 -1.2123764,-2.88187"
         stroke="none"
         fill="#ff7600"
         fill-rule="nonzero"
         id="path322"
         style="stroke-width:0.258307" />
      <path
         d="m 9.7861886,15.412932 c 1.1506754,0 1.9954024,0.585369 2.4846234,1.547961 0.363793,0.715821 0.505221,1.620765 0.415169,2.301422 v 0 l -0.02769,0.199571 c -0.09829,0.67182 -0.214494,1.071937 -0.478779,1.464939 -0.413819,0.615383 -1.093611,0.918913 -2.038053,0.866253 -1.5050285,-0.08392 -2.0411532,-1.358308 -1.6960129,-3.476546 0.045642,-0.280129 0.3122728,-0.470621 0.5955196,-0.42548 0.2832468,0.04514 0.4758442,0.30883 0.4302078,0.588958 v 0 l -0.013922,0.08793 -0.024623,0.170029 -0.020234,0.162323 c -0.00304,0.02643 -0.00587,0.05253 -0.00852,0.07832 v 0 l -0.013792,0.150994 c -0.089247,1.129068 0.1987533,1.603501 0.8098445,1.637589 0.785818,0.0438 1.121922,-0.176194 1.313818,-0.874627 v 0 l 0.02777,-0.108378 c 0.0044,-0.01867 0.0088,-0.03766 0.01312,-0.05692 v 0 l 0.02494,-0.119449 c 0.004,-0.02052 0.008,-0.04138 0.01184,-0.06255 v 0 l 0.02265,-0.130881 c 0.0037,-0.02245 0.0073,-0.04524 0.01083,-0.06836 v 0 l 0.02083,-0.142671 c 0.0034,-0.02443 0.0068,-0.04922 0.01008,-0.07434 0.169896,-1.284358 -0.54374,-2.688565 -1.8696105,-2.688565 -1.2250937,0 -1.780699,0.477885 -2.3150004,1.711801 v 0 l -0.1598234,0.3892 -0.1597273,0.401736 C 7.0450842,19.206649 6.7427621,19.334781 6.4763803,19.229409 6.2100044,19.12401 6.0804355,18.825027 6.1869854,18.56157 v 0 l 0.2550988,-0.638297 0.074104,-0.175329 c 0.6854027,-1.577348 1.5489846,-2.335008 3.2700004,-2.335012 z"
         stroke="none"
         fill="#000000"
         fill-rule="nonzero"
         id="path326"
         style="stroke-width:0.258307" />
      <path
         d="M 3.6973513,8.4665343 C 4.2966812,8.3342644 4.8882657,8.3233911 5.5597879,8.3799563 v 0 l 0.3131429,0.0277 0.017221,7.996e-4 c 0.2151689,0 0.3896104,0.1725134 0.3896104,0.3853203 0,0.2128077 -0.1744415,0.3853211 -0.3896104,0.3853211 v 0 L 5.8453983,9.1779775 5.7906191,9.1744171 5.493658,9.1478197 C 4.8942787,9.0973298 4.3735332,9.1069012 3.8670604,9.2186751 3.5322188,9.2925771 3.2366395,9.4083173 2.9866343,9.5701547 2.8065953,9.6867014 2.5651178,9.6368358 2.4472724,9.4587789 2.329431,9.2807246 2.3798484,9.0419052 2.5598861,8.9253584 2.8938758,8.7091548 3.2759876,8.5595287 3.6973513,8.4665343 Z"
         stroke="none"
         fill="#000000"
         fill-rule="nonzero"
         id="path330"
         style="stroke-width:0.258307" />
      <path
         d="M 3.5818912,9.9311492 C 4.12619,9.6499753 4.6947745,9.4880441 5.3582006,9.3707904 v 0 l 0.3097143,-0.053394 0.016857,-0.00363 c 0.2078442,-0.055079 0.4214806,0.066905 0.4771689,0.2724623 0.055688,0.2055559 -0.067662,0.4168383 -0.2755065,0.4719183 v 0 l -0.043506,0.01037 -0.053844,0.01058 -0.2937922,0.05032 C 4.9031174,10.234071 4.402616,10.376614 3.9426575,10.614221 3.6385639,10.771306 3.3833457,10.95877 3.1842132,11.179083 3.0408106,11.337741 2.7945067,11.351389 2.6340835,11.209562 2.4736562,11.067741 2.459856,10.824149 2.6032607,10.665491 2.8692911,10.371165 3.1992262,10.128827 3.5818912,9.9311492 Z"
         stroke="none"
         fill="#000000"
         fill-rule="nonzero"
         id="path334"
         style="stroke-width:0.258307" />
      <path
         d="M 4.0370084,11.419176 C 4.4891773,11.00826 4.996006,10.706312 5.6061515,10.423231 v 0 l 0.2851897,-0.13085 0.015325,-0.0078 c 0.1863377,-0.1064 0.4246235,-0.04326 0.5322079,0.141038 0.1075844,0.184296 0.04374,0.419961 -0.1425974,0.526361 v 0 l -0.039325,0.02115 -0.049247,0.02401 -0.2706234,0.123811 C 5.3924891,11.37359 4.9463462,11.639382 4.5642423,11.986631 4.3116188,12.21621 4.1141539,12.462605 3.9794603,12.726388 3.8824681,12.916347 3.6481278,12.992563 3.456053,12.896644 3.2639826,12.800719 3.1869078,12.568964 3.2839023,12.379003 3.463841,12.026607 3.7191097,11.708075 4.0370084,11.419176 Z"
         stroke="none"
         fill="#000000"
         fill-rule="nonzero"
         id="path338"
         style="stroke-width:0.258307" />
      <path
         d="M 24.186697,8.4665343 C 23.587372,8.3342644 22.995782,8.3233911 22.324268,8.3799563 v 0 l -0.313135,0.0277 -0.01722,7.996e-4 c -0.215176,0 -0.38961,0.1725134 -0.38961,0.3853203 0,0.2128077 0.174434,0.3853211 0.38961,0.3853211 v 0 l 0.04475,-0.00112 0.05478,-0.00356 0.296956,-0.026597 c 0.599382,-0.05049 1.12013,-0.040919 1.626595,0.070855 0.334844,0.073902 0.630428,0.1896422 0.880428,0.3514796 0.180026,0.1165467 0.421533,0.066681 0.539351,-0.1113758 0.117844,-0.1780543 0.06743,-0.4168737 -0.112597,-0.5334205 -0.334,-0.2162036 -0.716104,-0.3658297 -1.137473,-0.4588241 z"
         stroke="none"
         fill="#000000"
         fill-rule="nonzero"
         id="path342"
         style="stroke-width:0.258307" />
      <path
         d="M 24.302316,9.9311569 C 23.758025,9.6499856 23.189438,9.4880518 22.526001,9.3708022 v 0 l -0.309712,-0.053398 -0.01685,-0.00363 c -0.207841,-0.055075 -0.421483,0.066905 -0.477176,0.2724623 -0.05569,0.2055559 0.06766,0.4168435 0.275498,0.4719185 v 0 l 0.04352,0.01037 0.05385,0.01059 0.2938,0.05032 c 0.592164,0.104653 1.092665,0.247193 1.552623,0.484805 0.304091,0.157086 0.559317,0.344549 0.758434,0.564863 0.143429,0.158657 0.389715,0.172305 0.550156,0.03048 0.160416,-0.141821 0.174208,-0.385416 0.03081,-0.544073 -0.266027,-0.294329 -0.595975,-0.536663 -0.978629,-0.7343455 z"
         stroke="none"
         fill="#000000"
         fill-rule="nonzero"
         id="path346"
         style="stroke-width:0.258307" />
    </g>
  </g>
</svg>
