<svg width="91" height="41" viewBox="0 0 91 41" fill="none" xmlns="http://www.w3.org/2000/svg">
<g clip-path="url(#clip0_1_94)">
<path d="M16.9093 0.000213623C18.5386 0.000213623 19.7227 0.445414 20.4616 1.33585C21.2195 2.20735 21.5984 3.65671 21.5984 5.68392V13.4423C21.5984 13.878 21.4374 14.257 21.1153 14.579C20.7932 14.9011 20.4143 15.0622 19.9785 15.0622H17.9608C17.525 15.0622 17.1461 14.9011 16.824 14.579C16.5209 14.257 16.3693 13.878 16.3693 13.4423V5.68392C16.3693 5.03977 16.2746 4.60402 16.0851 4.37669C15.8956 4.14942 15.5546 4.0358 15.062 4.0358C14.6831 4.0358 14.3231 4.15899 13.9821 4.40541C13.66 4.65184 13.499 4.8887 13.499 5.11592V13.4426C13.499 13.8784 13.338 14.2573 13.0159 14.5794C12.6938 14.9015 12.3148 15.0625 11.8791 15.0625H9.86134C9.42561 15.0625 9.04671 14.9015 8.72465 14.5794C8.42148 14.2573 8.26988 13.8784 8.26988 13.4426V5.68427C8.26988 5.04011 8.17516 4.60437 7.98568 4.37704C7.7962 4.14951 7.45517 4.03574 6.96262 4.03574C6.58371 4.03574 6.22374 4.15899 5.8827 4.40541C5.56061 4.65184 5.39957 4.88864 5.39957 5.11586V13.4426C5.39957 13.8783 5.23852 14.2573 4.91646 14.5794C4.59439 14.9015 4.21548 15.0625 3.7797 15.0625H1.61989C1.18414 15.0625 0.805203 14.9015 0.483112 14.5794C0.161046 14.2573 3.05176e-05 13.8783 3.05176e-05 13.4426V1.90451C3.05176e-05 1.46876 0.161046 1.08985 0.483112 0.767786C0.805203 0.44572 1.18414 0.284676 1.61989 0.284676H3.35343C3.80813 0.284676 4.19652 0.44572 4.51858 0.767786C4.84067 1.07093 5.02069 1.44983 5.05859 1.90451L5.08503 2.24543C5.08503 2.26307 5.09386 2.2719 5.1115 2.2719C5.14955 2.2719 5.16856 2.26307 5.16856 2.24543C5.68009 1.54443 6.28637 0.994996 6.98739 0.597137C7.70729 0.199304 8.40826 0.000386636 9.09034 0.000386636C9.96185 0.000386636 10.6534 0.151943 11.1649 0.455036C11.6954 0.758179 12.1975 1.30761 12.6711 2.10333C12.6711 2.12097 12.6799 2.12977 12.6976 2.12977C12.7356 2.12977 12.7641 2.12097 12.783 2.10333C14.185 0.701379 15.5585 0.000386636 16.9037 0.000386636L16.9093 0.000213623Z" fill="white"/>
<path d="M30.0507 10.9265C30.4107 11.5138 30.9886 11.8075 31.7843 11.8075C32.58 11.8075 33.1579 11.5138 33.5178 10.9265C33.8778 10.3202 34.0578 9.28765 34.0578 7.82883C34.0578 6.36999 33.8778 5.34695 33.5178 4.75964C33.1579 4.15335 32.58 3.85017 31.7843 3.85017C30.9886 3.85017 30.4107 4.15335 30.0507 4.75964C29.6908 5.34695 29.5108 6.36999 29.5108 7.82883C29.5108 9.28765 29.6908 10.3202 30.0507 10.9265ZM26.129 2.20187C27.4741 0.83779 29.3592 0.155762 31.7843 0.155762C34.2094 0.155762 36.0945 0.83779 37.4396 2.20187C38.7848 3.54706 39.4573 5.42271 39.4573 7.82883C39.4573 10.235 38.7848 12.1201 37.4396 13.4842C36.0945 14.8294 34.2094 15.502 31.7843 15.502C29.3592 15.502 27.4741 14.8294 26.129 13.4842C24.7838 12.1201 24.1112 10.235 24.1112 7.82883C24.1112 5.42271 24.7838 3.54706 26.129 2.20187Z" fill="white"/>
<path d="M47.2889 2.13159C48.4636 0.710664 49.9129 0.000213623 51.637 0.000213623C53.3611 0.000213623 54.5926 0.492772 55.3315 1.47792C56.0893 2.46311 56.4682 4.1493 56.4682 6.53647V13.4423C56.4682 13.878 56.3072 14.257 55.9851 14.579C55.6631 14.9011 55.2841 15.0622 54.8483 15.0622H52.8306C52.3948 15.0622 52.0159 14.9011 51.6938 14.579C51.3718 14.257 51.2108 13.878 51.2108 13.4423V6.53647C51.2108 5.66499 51.0876 5.06823 50.8411 4.74613C50.5947 4.42407 50.1495 4.26302 49.5055 4.26302C48.975 4.26302 48.4824 4.47143 48.0277 4.88824C47.5919 5.30502 47.3741 5.75973 47.3741 6.25233V13.4423C47.3741 13.878 47.213 14.257 46.891 14.579C46.5689 14.9011 46.1899 15.0622 45.7542 15.0622H43.5943C43.1586 15.0622 42.7797 14.9011 42.4576 14.579C42.1355 14.257 41.9745 13.878 41.9745 13.4423V1.90422C41.9745 1.46847 42.1355 1.08956 42.4576 0.767498C42.7797 0.445406 43.1586 0.284359 43.5943 0.284359H45.5268C45.9815 0.284359 46.3699 0.445406 46.692 0.767498C47.0141 1.07062 47.1846 1.44952 47.2035 1.90422V2.13173C47.2035 2.14937 47.2124 2.15821 47.23 2.15821C47.268 2.15821 47.2889 2.14923 47.2889 2.13159Z" fill="white"/>
<path d="M68.461 6.25232C68.6313 6.25232 68.7165 6.16701 68.7165 5.99643C68.6988 5.1249 68.5094 4.49965 68.1481 4.12074C67.8071 3.74183 67.2861 3.55239 66.5851 3.55239C65.8462 3.55239 65.2873 3.74183 64.9084 4.12074C64.5484 4.4807 64.3211 5.11543 64.2264 6.02486C64.2264 6.17655 64.3022 6.25237 64.4539 6.25237L68.461 6.25232ZM66.4432 0.000201849C71.2555 0.000201849 73.6711 2.53892 73.69 7.61641C73.69 8.07111 73.5195 8.45953 73.1785 8.78159C72.8374 9.08474 72.4301 9.23627 71.9565 9.23627H64.5107C64.3401 9.23627 64.2738 9.32158 64.3119 9.49216C64.4825 10.2879 64.8519 10.8468 65.4202 11.1689C66.0076 11.491 66.917 11.652 68.1485 11.652C68.9252 11.652 69.8725 11.5383 70.9903 11.311C71.3882 11.2166 71.7482 11.3018 72.0702 11.5666C72.3923 11.813 72.5534 12.1445 72.5534 12.5612V13.016C72.5534 13.4896 72.4018 13.9254 72.0987 14.3233C71.8146 14.7022 71.4452 14.9295 70.9903 15.0053C69.8346 15.2326 68.6032 15.3462 67.2959 15.3462C64.6056 15.3462 62.531 14.6926 61.0722 13.3853C59.6323 12.0591 58.9123 10.155 58.9123 7.6731C58.9123 5.21013 59.5565 3.31551 60.8448 1.98928C62.1331 0.663089 63.9992 0.000201849 66.4432 0.000201849Z" fill="white"/>
<path d="M72.9851 21.0537C73.5778 21.0537 74.0932 21.2729 74.5313 21.7108C74.9693 22.1489 75.1884 22.6643 75.1884 23.2569V23.8754C75.1884 24.4681 74.9692 24.9835 74.5313 25.4216C74.0932 25.8596 73.5778 26.0786 72.9851 26.0786H69.545C69.3129 26.0786 69.1969 26.1947 69.1969 26.4267V31.8768C69.1969 33.4229 69.3258 34.3893 69.5834 34.7758C69.8412 35.1623 70.4209 35.3556 71.3228 35.3556C71.6834 35.3556 72.1216 35.3171 72.637 35.2396C73.1782 35.1625 73.6678 35.3042 74.1059 35.6648C74.5697 35.9997 74.8016 36.4378 74.8016 36.979V37.984C74.8016 38.6282 74.5956 39.208 74.1832 39.7233C73.7966 40.213 73.2941 40.4964 72.6757 40.5738C71.7738 40.7026 70.6786 40.7669 69.3901 40.7669C66.6329 40.7669 64.6873 40.1742 63.5535 38.9888C62.4197 37.8035 61.8528 35.6904 61.8528 32.6497V26.4265C61.8528 26.1945 61.7368 26.0784 61.5047 26.0784H59.9973C59.4046 26.0784 58.8892 25.8593 58.4512 25.4214C58.0131 24.9833 57.794 24.4679 57.794 23.8752V23.2568C57.794 22.6641 58.0132 22.1488 58.4512 21.7107C58.8892 21.2726 59.4046 21.0536 59.9973 21.0536H61.5047C61.7368 21.0536 61.8528 20.9375 61.8528 20.7055V19.4661C61.8528 18.8734 62.072 18.3581 62.5099 17.92C62.948 17.4819 63.4634 17.2629 64.0561 17.2629H66.9937C67.5864 17.2629 68.1017 17.4821 68.5398 17.92C68.9779 18.3581 69.1969 18.8734 69.1969 19.4661V20.7055C69.1969 20.9375 69.3129 21.0536 69.545 21.0536L72.9851 21.0537Z" fill="white"/>
</g>
<defs>
<clipPath id="clip0_1_94">
<rect width="90.0023" height="40.7671" fill="white"/>
</clipPath>
</defs>
</svg>
