<svg width="90" height="41" viewBox="0 0 90 41" fill="none" xmlns="http://www.w3.org/2000/svg">
<g clip-path="url(#clip0_1_95)">
<path d="M47.8429 32.1368V31.9048C47.8429 31.6727 47.7269 31.5567 47.4949 31.5567H46.2966C43.7197 31.5567 42.4313 32.3297 42.4313 33.8758C42.4313 35.0354 43.0755 35.6153 44.3639 35.6153C45.3689 35.6153 46.1935 35.3061 46.8378 34.6876C47.5078 34.0434 47.8429 33.1934 47.8429 32.1368ZM45.5237 19.7679C48.9252 19.7679 51.3862 20.3863 52.9065 21.6232C54.4269 22.8601 55.187 24.8185 55.187 27.4985V38.0508C55.187 38.6434 54.9678 39.1588 54.53 39.5969C54.0919 40.035 53.5765 40.254 52.9838 40.254H50.5486C49.9302 40.254 49.4019 40.048 48.9638 39.6356C48.5258 39.1975 48.2939 38.6692 48.2681 38.0508V37.7416C48.2681 37.7151 48.253 37.7031 48.2296 37.7031C48.2031 37.7031 48.1778 37.7182 48.1525 37.7416C46.5033 39.6742 44.4675 40.6406 42.0453 40.6406C40.2415 40.6406 38.7598 40.0737 37.6002 38.9399C36.4406 37.7803 35.8608 36.2856 35.8608 34.4561C35.8608 29.8177 39.3395 27.4985 46.2971 27.4985H47.4954C47.7275 27.4985 47.8435 27.3825 47.8435 27.1505V27.1119C47.8435 25.5658 46.9415 24.7927 45.1377 24.7927C43.5916 24.7927 41.5945 25.0248 39.1465 25.4885C38.6054 25.5913 38.1158 25.4733 37.6777 25.1404C37.2396 24.7794 37.0206 24.3158 37.0206 23.7489V23.1304C37.0206 22.4862 37.2141 21.9064 37.6004 21.391C38.0127 20.8756 38.5281 20.5664 39.1465 20.4634C41.6976 19.9995 43.823 19.7679 45.5237 19.7679Z" fill="white"/>
<path d="M30.0413 35.0848C30.6082 34.982 31.1107 35.0999 31.5488 35.4329C31.9869 35.7678 32.2059 36.2188 32.2059 36.7858V37.7907C32.2059 38.4349 31.9999 39.0018 31.5874 39.4914C31.2009 39.981 30.6855 40.2773 30.0413 40.3804C28.2375 40.6382 26.7043 40.767 25.4416 40.767C22.0143 40.767 19.3859 39.8908 17.5563 38.1386C15.7268 36.3863 14.812 33.7837 14.812 30.3307C14.812 26.955 15.6881 24.3781 17.4404 22.6C19.2184 20.7962 21.7566 19.8943 25.055 19.8943C26.3177 19.8943 27.851 20.0232 29.6548 20.2808C30.299 20.3836 30.8144 20.6801 31.2009 21.1699C31.6132 21.6594 31.8193 22.2264 31.8193 22.8706V23.8756C31.8193 24.4425 31.6001 24.8934 31.1622 25.2284C30.7242 25.5633 30.2217 25.6794 29.6548 25.5765C28.5982 25.3959 27.516 25.3059 26.4079 25.3059C25.0937 25.3059 24.1145 25.7053 23.4703 26.5042C22.8519 27.303 22.5426 28.5785 22.5426 30.3308C22.5426 32.1088 22.8775 33.3973 23.5476 34.1962C24.2434 34.9692 25.3256 35.3557 26.7944 35.3557C27.9025 35.3557 28.9848 35.2651 30.0413 35.0848Z" fill="white"/>
<path d="M88.8657 0.28436C89.2635 0.28436 89.5666 0.445407 89.775 0.767499C90.0023 1.07062 90.0591 1.41165 89.9455 1.79061L83.4944 19.8081C83.3238 20.2628 83.0397 20.6228 82.6419 20.888C82.244 21.1721 81.8082 21.3141 81.3346 21.3141H78.8906C78.4927 21.3141 78.1801 21.1531 77.9527 20.831C77.7444 20.5279 77.7159 20.1963 77.8673 19.8363L79.743 15.2893C79.7606 15.2135 79.7694 15.1376 79.7694 15.0617C79.7694 14.9859 79.7606 14.9101 79.743 14.8342L74.855 1.79001C74.7033 1.43002 74.7412 1.08899 74.9687 0.766922C75.1962 0.444831 75.5089 0.283783 75.9066 0.283783H78.6347C79.0895 0.283783 79.4968 0.435347 79.8568 0.73849C80.2357 1.04161 80.4725 1.42054 80.5672 1.87524L82.2155 10.202C82.2155 10.2196 82.2243 10.2285 82.242 10.2285C82.2596 10.2285 82.2684 10.2196 82.2684 10.202L84.3999 1.84684C84.5135 1.39211 84.7598 1.02266 85.1387 0.73849C85.5177 0.435347 85.9439 0.283783 86.4176 0.283783L88.8657 0.28436Z" fill="white"/>
</g>
<defs>
<clipPath id="clip0_1_95">
<rect width="90" height="40.767" fill="white"/>
</clipPath>
</defs>
</svg>
